<?xml version="1.0" encoding="iso-8859-1"?>
<!-- Generator: Adobe Illustrator 16.0.0, SVG Export Plug-In . SVG Version: 6.00 Build 0)  -->
<!DOCTYPE svg PUBLIC "-//W3C//DTD SVG 1.1//EN" "http://www.w3.org/Graphics/SVG/1.1/DTD/svg11.dtd">
<svg version="1.1" id="Capa_1" xmlns="http://www.w3.org/2000/svg" xmlns:xlink="http://www.w3.org/1999/xlink" x="0px" y="0px"
	 width="31.53px" height="31.529px" viewBox="0 0 31.53 31.529" style="enable-background:new 0 0 31.53 31.529;"
	 xml:space="preserve">
<g>
	<g>
		<path d="M6.188,29.909c0.156,0.42,0.54,0.713,0.986,0.752c0.446,0.04,0.876-0.18,1.105-0.566c0.676-1.144,1.726-2.43,3.231-3.029
			c-1.354-2.993-2.159-5.658-2.635-7.826C7.083,20.553,3.939,23.87,6.188,29.909z"/>
		<path d="M22.678,19.256c-0.478,2.164-1.281,4.826-2.636,7.814c1.494,0.604,2.537,1.885,3.211,3.022
			c0.228,0.388,0.658,0.605,1.104,0.566c0.446-0.041,0.829-0.334,0.985-0.754C27.58,23.897,24.47,20.585,22.678,19.256z"/>
		<path d="M22.148,13.369c0.067-6.654-3.565-11.104-5.422-12.941C16.446,0.151,16.065-0.003,15.669,0
			c-0.394,0.004-0.771,0.165-1.047,0.448c-1.799,1.847-5.284,6.291-5.218,12.92c0,0-0.332,6.124,3.832,14.534h2.497h0.086h2.497
			C22.479,19.492,22.148,13.369,22.148,13.369z M14.115,8.009c-0.061,0.1-1.148,1.951-0.695,4.878
			c0.101,0.658-0.351,1.273-1.009,1.375c-0.061,0.009-0.122,0.014-0.184,0.014c-0.584,0-1.097-0.425-1.189-1.02
			c-0.6-3.88,0.969-6.42,1.035-6.526c0.356-0.562,1.101-0.73,1.663-0.375C14.293,6.708,14.465,7.448,14.115,8.009z M15.173,2.329
			c0.74,0,1.341,0.6,1.341,1.342s-0.602,1.343-1.341,1.343c-0.743,0-1.344-0.601-1.344-1.343S14.43,2.329,15.173,2.329z"/>
		<rect x="12.195" y="29.331" width="7.254" height="2.198"/>
	</g>
</g>
<g>
</g>
<g>
</g>
<g>
</g>
<g>
</g>
<g>
</g>
<g>
</g>
<g>
</g>
<g>
</g>
<g>
</g>
<g>
</g>
<g>
</g>
<g>
</g>
<g>
</g>
<g>
</g>
<g>
</g>
</svg>
